<svg xmlns="http://www.w3.org/2000/svg" xmlns:xlink="http://www.w3.org/1999/xlink" width="221.518" height="149.854" viewBox="0 0 221.518 149.854">
  <defs>
    <clipPath id="clip-path">
      <rect id="Rectangle_2360" data-name="Rectangle 2360" width="221.518" height="149.854" transform="translate(0 0)" fill="#fff"/>
    </clipPath>
  </defs>
  <g id="Group_6019" data-name="Group 6019" transform="translate(0 -0.004)">
    <g id="Group_6018" data-name="Group 6018" transform="translate(0 0.004)" clip-path="url(#clip-path)">
      <path id="Path_8133" data-name="Path 8133" d="M330.019,43.7a43.7,43.7,0,1,0-43.7,43.7,43.75,43.75,0,0,0,43.7-43.7M286.318,83a39.3,39.3,0,1,1,39.3-39.3,39.345,39.345,0,0,1-39.3,39.3" transform="translate(-222.229 -0.004)" fill="#fff"/>
      <path id="Path_8134" data-name="Path 8134" d="M33.205,1100.474a2.165,2.165,0,0,0-.867.179C12.391,1109.2,0,1125.23,0,1142.5v12.376a2.2,2.2,0,1,0,4.4,0V1142.5c0-15.478,11.37-29.962,29.673-37.8a2.2,2.2,0,0,0,1.158-2.888,2.2,2.2,0,0,0-2.026-1.337" transform="translate(0 -1007.992)" fill="#fff"/>
      <path id="Path_8135" data-name="Path 8135" d="M1105.18,1104.665a59.814,59.814,0,0,1,14.414,8.619,2.189,2.189,0,0,0,2.872-3.3l-.021-.018a64.039,64.039,0,0,0-15.535-9.348,2.156,2.156,0,0,0-.863-.178,2.2,2.2,0,0,0-.866,4.226" transform="translate(-1011.079 -1007.96)" fill="#fff"/>
      <path id="Path_8136" data-name="Path 8136" d="M371.2,1573.689a2.2,2.2,0,0,0-2.2,2.2v12.43a2.2,2.2,0,1,0,4.4,0v-12.43a2.2,2.2,0,0,0-2.2-2.2" transform="translate(-337.986 -1441.438)" fill="#fff"/>
      <path id="Path_8137" data-name="Path 8137" d="M1106.075,1573.689a2.2,2.2,0,0,0-2.2,2.2v12.43a2.2,2.2,0,1,0,4.4,0v-12.43a2.2,2.2,0,0,0-2.2-2.2" transform="translate(-1011.107 -1441.438)" fill="#fff"/>
      <path id="Path_8138" data-name="Path 8138" d="M2052.889,1211.481a2.162,2.162,0,0,0,.023,4.325h0l4.62-.007a2.164,2.164,0,0,0,2.139-2.185,2.17,2.17,0,0,0-2.163-2.139Z" transform="translate(-1878.406 -1109.663)" fill="#fff"/>
      <path id="Path_8139" data-name="Path 8139" d="M1895.243,1464.416l2.937,4.778a2.162,2.162,0,0,0,3.742-2.168l-2.938-4.779a2.162,2.162,0,0,0-3.742,2.168" transform="translate(-1735.702 -1338.376)" fill="#fff"/>
      <path id="Path_8140" data-name="Path 8140" d="M1896.046,914.913a2.162,2.162,0,0,0,2.951-.785l2.934-4.851,0-.007a2.162,2.162,0,0,0-3.739-2.173l-2.941,4.862a2.165,2.165,0,0,0,.79,2.954" transform="translate(-1735.715 -829.884)" fill="#fff"/>
      <path id="Path_8141" data-name="Path 8141" d="M2023.9,1019.486a2.156,2.156,0,0,0-1.069.284l-5.9,3.1-.015.008a2.162,2.162,0,0,0,2.151,3.752l5.9-3.1.015-.008a2.163,2.163,0,0,0-1.083-4.035" transform="translate(-1846.424 -933.81)" fill="#fff"/>
      <path id="Path_8142" data-name="Path 8142" d="M2016.9,1365.648l5.913,3.552a2.162,2.162,0,0,0,2.17-3.741l-5.913-3.553a2.162,2.162,0,0,0-2.17,3.741" transform="translate(-1846.419 -1247.188)" fill="#fff"/>
      <path id="Path_8143" data-name="Path 8143" d="M1529.537,1556.839a9.51,9.51,0,1,0,9.509,9.51,9.52,9.52,0,0,0-9.509-9.51m0,14.694a5.185,5.185,0,1,1,5.185-5.185,5.191,5.191,0,0,1-5.185,5.185" transform="translate(-1392.286 -1426.004)" fill="#fff"/>
      <path id="Path_8144" data-name="Path 8144" d="M1467.669,697.226a9.541,9.541,0,0,0,9.508-9.376c2.122-18.184,5.677-48.809,5.677-49.8a15.186,15.186,0,0,0-30.372,0c0,.995,3.556,31.62,5.677,49.8a9.541,9.541,0,0,0,9.508,9.376m0-70.041A10.876,10.876,0,0,1,1478.53,638c-.115,1.673-3.445,30.467-5.662,49.471l-.011.095,0,.156a5.185,5.185,0,0,1-10.369,0v-.1l-.015-.155c-2.217-19-5.547-47.791-5.662-49.465a10.879,10.879,0,0,1,10.861-10.816" transform="translate(-1330.418 -570.516)" fill="#fff"/>
      <path id="Path_8145" data-name="Path 8145" d="M1853.236,643.348l-30.421-52.691-13.605-23.565a13.052,13.052,0,0,0-22.606,0,2.162,2.162,0,1,0,3.745,2.162,8.727,8.727,0,0,1,15.116,0l44.046,76.291c.014.024.028.048.042.07a8.729,8.729,0,0,1-7.379,13.371h-56.425a2.162,2.162,0,0,0,0,4.325h56.413a13.054,13.054,0,0,0,11.074-19.962" transform="translate(-1633.696 -513.457)" fill="#fff"/>
      <path id="Path_8146" data-name="Path 8146" d="M1288.335,1352.123h-3.079a8.727,8.727,0,0,1-7.558-13.091l10.675-18.491a2.163,2.163,0,0,0-1.871-3.244,2.17,2.17,0,0,0-1.874,1.082l-10.675,18.491a13.052,13.052,0,0,0,11.3,19.578h3.079a2.162,2.162,0,1,0,0-4.325" transform="translate(-1165.294 -1206.594)" fill="#fff"/>
    </g>
  </g>
</svg>
