<svg xmlns="http://www.w3.org/2000/svg" xmlns:xlink="http://www.w3.org/1999/xlink" width="154.754" height="149.854" viewBox="0 0 154.754 149.854">
  <defs>
    <clipPath id="clip-path">
      <rect id="Rectangle_2361" data-name="Rectangle 2361" width="154.754" height="149.854" transform="translate(0 0)" fill="#fff"/>
    </clipPath>
  </defs>
  <g id="Group_6021" data-name="Group 6021" transform="translate(0 0.004)">
    <g id="Group_6020" data-name="Group 6020" transform="translate(0 -0.004)" clip-path="url(#clip-path)">
      <path id="Path_8147" data-name="Path 8147" d="M1385.226,1085.349v-11.324a15.852,15.852,0,0,0-31.7,0l-.008,11.314a14.446,14.446,0,0,0-11.025,14.016v14.61a14.437,14.437,0,0,0,14.421,14.421h24.871a14.437,14.437,0,0,0,14.421-14.421v-14.61a14.446,14.446,0,0,0-10.976-14m-26.848-11.324a11,11,0,0,1,21.992,0v10.907h-22Zm32.967,39.938a9.575,9.575,0,0,1-9.564,9.564H1356.91a9.575,9.575,0,0,1-9.564-9.564v-14.61a9.575,9.575,0,0,1,9.564-9.564h24.871a9.575,9.575,0,0,1,9.564,9.564Z" transform="translate(-1241.447 -978.53)" fill="#fff"/>
      <path id="Path_8148" data-name="Path 8148" d="M1614.037,1544.052a6.993,6.993,0,0,0-2.445,13.545l-.08,5.555a2.428,2.428,0,0,0,2.393,2.463h.036a2.429,2.429,0,0,0,2.427-2.393l.081-5.612a6.993,6.993,0,0,0-2.411-13.558m0,9.13a2.137,2.137,0,1,1,2.137-2.137,2.139,2.139,0,0,1-2.137,2.137" transform="translate(-1486.09 -1427.839)" fill="#fff"/>
      <path id="Path_8149" data-name="Path 8149" d="M321.947,39.66a39.665,39.665,0,1,0-39.665,39.666A39.709,39.709,0,0,0,321.947,39.66M282.282,74.33a34.67,34.67,0,1,1,34.67-34.67,34.709,34.709,0,0,1-34.67,34.67" transform="translate(-224.357 0.004)" fill="#fff"/>
      <path id="Path_8150" data-name="Path 8150" d="M30.265,1100.465a2.457,2.457,0,0,0-.984.2C11.22,1108.4,0,1122.949,0,1138.628v14.32a2.5,2.5,0,1,0,4.995,0v-14.32c0-13.648,10.06-26.434,26.255-33.368a2.5,2.5,0,0,0,1.314-3.278,2.5,2.5,0,0,0-2.3-1.517" transform="translate(0 -1017.639)" fill="#fff"/>
      <path id="Path_8151" data-name="Path 8151" d="M1121.4,1109.119l-.043-.038a57.879,57.879,0,0,0-14.041-8.45,2.446,2.446,0,0,0-.98-.2,2.5,2.5,0,0,0-.983,4.8,53.048,53.048,0,0,1,12.784,7.644,2.487,2.487,0,0,0,3.263-3.751" transform="translate(-1020.76 -1017.606)" fill="#fff"/>
      <path id="Path_8152" data-name="Path 8152" d="M371.494,1573.68a2.5,2.5,0,0,0-2.5,2.5v14.368a2.5,2.5,0,1,0,5,0v-14.368a2.5,2.5,0,0,0-2.5-2.5" transform="translate(-341.224 -1455.237)" fill="#fff"/>
      <path id="Path_8153" data-name="Path 8153" d="M1106.373,1573.68a2.5,2.5,0,0,0-2.5,2.5v14.368a2.5,2.5,0,1,0,5,0v-14.368a2.5,2.5,0,0,0-2.5-2.5" transform="translate(-1020.792 -1455.237)" fill="#fff"/>
    </g>
  </g>
</svg>
